HIERARCHY
ROOT Hips
{
	OFFSET -0.001795 -0.223333 0.028219
	CHANNELS 6 Xposition Yposition Zposition Zrotation Yrotation Xrotation 
	JOINT LeftUpLeg
	{
		OFFSET 0.069520 -0.091406 -0.006815
		CHANNELS 3 Zrotation Yrotation Xrotation
		JOINT LeftLeg
		{
			OFFSET 0.034277 -0.375199 -0.004496
			CHANNELS 3 Zrotation Yrotation Xrotation
			JOINT LeftFoot
			{
				OFFSET -0.013596 -0.397961 -0.043693
				CHANNELS 3 Zrotation Yrotation Xrotation
				JOINT LeftToe
				{
					OFFSET 0.026358 -0.055791 0.119288
					CHANNELS 3 Zrotation Yrotation Xrotation
					End Site
					{
						OFFSET 0.000000 0.000000 0.000000
					}
				}
			}
		}
	}
	JOINT RightUpLeg
	{
		OFFSET -0.067670 -0.090522 -0.004320
		CHANNELS 3 Zrotation Yrotation Xrotation
		JOINT RightLeg
		{
			OFFSET -0.038290 -0.382569 -0.008850
			CHANNELS 3 Zrotation Yrotation Xrotation
			JOINT RightFoot
			{
				OFFSET 0.015774 -0.398415 -0.042312
				CHANNELS 3 Zrotation Yrotation Xrotation
				JOINT RightToe
				{
					OFFSET -0.025372 -0.048144 0.123348
					CHANNELS 3 Zrotation Yrotation Xrotation
					End Site
					{
						OFFSET 0.000000 0.000000 0.000000
					}
				}
			}
		}
	}
	JOINT Spine
	{
		OFFSET -0.002533 0.108963 -0.026696
		CHANNELS 3 Zrotation Yrotation Xrotation
		JOINT Spine1
		{
			OFFSET 0.005487 0.135180 0.001092
			CHANNELS 3 Zrotation Yrotation Xrotation
			JOINT Spine2
			{
				OFFSET 0.001457 0.052922 0.025425
				CHANNELS 3 Zrotation Yrotation Xrotation
				JOINT Neck
				{
					OFFSET -0.002778 0.213870 -0.042857
					CHANNELS 3 Zrotation Yrotation Xrotation
					JOINT Head
					{
						OFFSET 0.005152 0.064970 0.051349
						CHANNELS 3 Zrotation Yrotation Xrotation
						End Site
						{
							OFFSET 0.000000 0.000000 0.000000
						}
					}
				}
				JOINT LeftShoulder
				{
					OFFSET 0.078845 0.121749 -0.034090
					CHANNELS 3 Zrotation Yrotation Xrotation
					JOINT LeftArm
					{
						OFFSET 0.090977 0.030469 -0.008868
						CHANNELS 3 Zrotation Yrotation Xrotation
						JOINT LeftForeArm
						{
							OFFSET 0.259612 -0.012772 -0.027456
							CHANNELS 3 Zrotation Yrotation Xrotation
							JOINT LeftHand
							{
								OFFSET 0.249234 0.008986 -0.001171
								CHANNELS 3 Zrotation Yrotation Xrotation
								End Site
								{
									OFFSET 0.000000 0.000000 0.000000
								}
							}
						}
					}
				}
				JOINT RightShoulder
				{
					OFFSET -0.081759 0.118833 -0.038615
					CHANNELS 3 Zrotation Yrotation Xrotation
					JOINT RightArm
					{
						OFFSET -0.096012 0.032551 -0.009143
						CHANNELS 3 Zrotation Yrotation Xrotation
						JOINT RightForeArm
						{
							OFFSET -0.253742 -0.013329 -0.021401
							CHANNELS 3 Zrotation Yrotation Xrotation
							JOINT RightHand
							{
								OFFSET -0.255298 0.007772 -0.005559
								CHANNELS 3 Zrotation Yrotation Xrotation
								End Site
								{
									OFFSET 0.000000 0.000000 0.000000
								}
							}
						}
					}
				}
			}
		}
	}
}
MOTION
Frames: 13
Frame Time: 0.050000
-0.104264 0.895100 0.353800 176.518153 -48.468590 -167.779063 -4.924452 19.338588 -36.073222 10.305337 7.042885 21.369918 -2.375957 -0.598392 9.780024 0.000000 0.000000 0.000000 -13.539820 10.571826 -27.450758 17.649096 9.701675 10.090871 -30.745679 -11.704504 16.323523 0.000000 0.000000 0.000000 17.900256 15.200107 42.528940 0.181503 -0.708245 -25.343551 -17.240948 -22.289797 33.383639 9.812797 0.840299 -18.788469 0.000000 0.000000 0.000000 -2.366875 -13.847875 29.771272 -63.293273 -63.271580 45.685238 115.536820 -58.355393 -58.759276 0.000000 0.000000 0.000000 4.920689 16.460243 -30.988708 67.610108 -12.124922 -17.483800 128.189142 43.703809 56.069250 0.000000 0.000000 0.000000 
-0.110948 0.895799 0.360611 177.112885 -47.095737 -168.510720 -5.210275 20.062454 -36.544723 11.343693 7.954130 23.105730 -2.894276 -0.964347 9.166386 0.000000 0.000000 0.000000 -13.551305 10.583964 -27.025648 17.328239 9.779486 9.654656 -30.163262 -10.144717 16.101093 0.000000 0.000000 0.000000 17.764640 15.459303 42.558590 0.174551 -0.730118 -24.811314 -17.552627 -22.778242 33.719480 10.244141 2.075923 -18.399470 0.000000 0.000000 0.000000 -0.006445 -14.204979 30.201774 -63.664915 -65.926441 50.433960 114.019071 -54.015421 -52.104722 0.000000 0.000000 0.000000 3.516954 15.781185 -31.538547 67.721172 -13.217340 -19.364874 127.906523 41.487276 53.262319 0.000000 0.000000 0.000000 
-0.118725 0.896094 0.367529 177.611560 -46.509405 -169.163917 -5.578315 20.393998 -36.959098 12.340437 8.679328 24.641458 -3.540372 -1.482894 8.415856 0.000000 0.000000 0.000000 -13.923311 10.726309 -26.891153 17.523807 9.903803 9.891066 -29.961767 -9.707477 16.339707 0.000000 0.000000 0.000000 18.011374 15.699598 42.869242 0.209309 -0.689505 -24.839708 -18.078920 -24.031695 34.516991 9.677723 3.224396 -17.487567 0.000000 0.000000 0.000000 2.311373 -14.816985 30.999529 -63.022348 -69.674444 55.554397 112.527261 -48.990048 -45.171129 0.000000 0.000000 0.000000 2.411008 16.346366 -31.681988 67.710424 -13.498756 -20.375065 126.906685 41.116166 51.163130 0.000000 0.000000 0.000000 
-0.127955 0.895988 0.374509 178.099861 -45.230303 -170.051925 -5.672856 20.620846 -36.842127 13.485256 9.675837 26.266432 -3.966242 -1.566880 7.396713 0.000000 0.000000 0.000000 -13.391028 10.390724 -25.992616 16.187527 9.442919 9.661892 -29.401601 -7.493017 14.968146 0.000000 0.000000 0.000000 18.557324 16.132050 43.432602 -0.163516 -0.842435 -24.167451 -18.456050 -24.734025 34.529227 10.055423 5.653995 -13.949891 0.000000 0.000000 0.000000 3.863150 -15.109164 31.556719 -61.059857 -71.611825 56.776491 114.226901 -46.431949 -42.937944 0.000000 0.000000 0.000000 1.864392 16.447237 -32.471849 67.310026 -15.131875 -21.291789 127.017987 39.384138 48.748770 0.000000 0.000000 0.000000 
-0.138616 0.895748 0.381165 178.388203 -44.406920 -170.288663 -5.592241 20.401999 -36.316626 13.152762 10.288775 26.568606 -3.741456 -0.832481 5.965822 0.000000 0.000000 0.000000 -14.064714 10.595757 -25.648183 16.149311 9.492129 9.157068 -29.348806 -6.781506 14.943729 0.000000 0.000000 0.000000 18.234338 16.003512 42.989504 -0.128400 -0.851559 -23.455354 -18.581645 -24.610993 34.442715 8.802418 6.648026 -12.765731 0.000000 0.000000 0.000000 5.646765 -14.900300 31.333648 -60.964374 -73.371267 60.289741 115.416871 -44.478942 -40.843679 0.000000 0.000000 0.000000 1.086967 16.583750 -32.607177 67.476136 -15.663363 -22.374552 127.257279 37.879189 46.505181 0.000000 0.000000 0.000000 
-0.150108 0.895867 0.388112 178.716236 -42.871774 -170.963304 -5.292136 20.414488 -35.674785 13.434087 11.538691 27.817513 -3.772618 -0.363870 4.770175 0.000000 0.000000 0.000000 -13.979285 10.556249 -25.135895 15.127401 9.089967 9.310695 -28.702952 -4.835699 13.860440 0.000000 0.000000 0.000000 19.156056 16.799887 44.051290 -0.976706 -1.022062 -23.355078 -18.500386 -24.783579 34.596083 9.058492 8.107029 -10.981128 0.000000 0.000000 0.000000 6.717177 -14.457603 30.827761 -60.581866 -73.535827 60.980052 117.521624 -44.870003 -42.305703 0.000000 0.000000 0.000000 0.388446 16.292820 -32.488305 67.413502 -16.100763 -23.112710 127.785733 36.677521 44.978662 0.000000 0.000000 0.000000 
-0.161514 0.895483 0.395522 178.707326 -41.403425 -170.931736 -5.560946 20.569837 -35.640235 13.609982 12.707789 28.962796 -3.810895 -0.101806 3.658992 0.000000 0.000000 0.000000 -14.752269 10.955979 -24.946941 14.506701 8.877816 8.720083 -28.505427 -3.428761 13.485020 0.000000 0.000000 0.000000 19.136954 17.282621 44.401483 -1.429546 -1.093704 -22.929411 -18.359658 -24.455196 34.824037 8.998552 8.788007 -10.707241 0.000000 0.000000 0.000000 8.059021 -13.764926 30.170640 -64.276270 -73.220922 65.449095 118.477219 -45.640766 -43.747069 0.000000 0.000000 0.000000 -0.381456 16.119314 -32.567637 67.727877 -16.044245 -23.888749 127.841939 35.823004 43.638893 0.000000 0.000000 0.000000 
-0.172185 0.894466 0.403483 178.868554 -40.545711 -171.195349 -6.033930 20.854885 -36.061291 14.586859 13.831657 30.737361 -4.461214 -0.737779 2.695718 0.000000 0.000000 0.000000 -15.257524 11.263352 -25.019673 13.912721 8.528482 9.084985 -28.367710 -2.568622 13.045987 0.000000 0.000000 0.000000 20.599710 18.112783 45.851737 -2.330064 -1.262945 -23.397273 -18.170627 -25.052358 35.521076 8.644999 9.078199 -10.698658 0.000000 0.000000 0.000000 8.971345 -13.084553 29.192262 -67.460156 -72.775764 68.944889 118.873016 -46.175699 -44.686159 0.000000 0.000000 0.000000 -0.981926 15.397711 -32.180952 67.911453 -15.697757 -24.358357 128.549963 35.160732 43.804559 0.000000 0.000000 0.000000 
-0.181902 0.892204 0.411407 178.803589 -40.008527 -171.043283 -7.243677 21.566524 -37.535353 16.500721 14.892312 33.312098 -5.710062 -2.505295 2.048681 0.000000 0.000000 0.000000 -16.533297 12.050564 -25.723969 14.130013 8.501020 9.752557 -29.071374 -2.778179 13.310988 0.000000 0.000000 0.000000 22.588773 19.057147 47.784211 -2.047843 -1.201187 -23.863547 -19.185142 -25.900091 35.920376 9.429185 9.257190 -10.468754 0.000000 0.000000 0.000000 8.555683 -12.733559 28.674109 -66.149032 -71.520667 65.846797 119.956989 -48.541932 -48.669725 0.000000 0.000000 0.000000 -0.768587 15.635493 -32.540572 67.883327 -15.402305 -23.536323 128.655614 36.282931 45.943986 0.000000 0.000000 0.000000 
-0.190495 0.889899 0.418729 178.671350 -39.735197 -170.923678 -8.333410 22.051203 -38.791965 18.274685 15.770111 35.623257 -6.843246 -4.178317 1.630353 0.000000 0.000000 0.000000 -17.613704 12.814919 -26.759056 14.201970 8.342728 11.311745 -29.759561 -3.219471 13.489712 0.000000 0.000000 0.000000 25.779487 20.456606 50.987567 -2.792205 -1.234411 -24.967025 -20.108835 -27.858611 37.111804 9.304692 8.351544 -11.884311 0.000000 0.000000 0.000000 9.104261 -12.377227 27.135225 -65.655024 -69.743885 64.014433 119.832820 -50.075138 -50.535671 0.000000 0.000000 0.000000 -0.340863 15.037309 -32.671804 67.648897 -14.433367 -22.252518 128.158941 37.404598 47.354533 0.000000 0.000000 0.000000 
-0.197853 0.886604 0.424852 178.638557 -40.104804 -170.720586 -9.758315 22.444057 -40.380726 20.359726 15.992378 37.653706 -8.143322 -6.074377 1.135803 0.000000 0.000000 0.000000 -19.106542 13.758209 -28.142750 15.381857 8.655516 13.159910 -30.983523 -5.030386 14.537448 0.000000 0.000000 0.000000 28.830721 21.205346 53.568812 -2.199564 -1.118307 -25.146161 -21.397018 -29.329781 37.120965 10.255135 7.516904 -11.939970 0.000000 0.000000 0.000000 8.527976 -12.514578 25.315093 -65.236666 -67.467431 60.359066 119.190352 -53.525287 -55.143416 0.000000 0.000000 0.000000 0.045182 14.772920 -31.481165 68.284458 -12.966415 -21.401161 125.644545 38.632121 44.079287 0.000000 0.000000 0.000000 
-0.204192 0.884237 0.429536 178.593360 -39.785837 -170.260924 -11.199058 23.098283 -42.072353 22.282548 16.143104 39.367430 -9.087922 -7.614787 1.081153 0.000000 0.000000 0.000000 -19.843310 14.460128 -29.439107 15.149636 8.514606 14.499349 -31.624681 -5.394806 14.691961 0.000000 0.000000 0.000000 31.393954 22.204359 56.348115 -2.380995 -0.919286 -26.031753 -22.596402 -30.925384 38.091056 11.182826 6.895613 -12.559188 0.000000 0.000000 0.000000 8.727911 -11.975465 23.734011 -64.521701 -65.075352 57.659929 118.625774 -54.811704 -55.777328 0.000000 0.000000 0.000000 0.549421 14.420753 -31.569321 68.441783 -12.446652 -20.743749 123.727121 38.183039 40.470494 0.000000 0.000000 0.000000 
-0.209654 0.881666 0.432901 178.730672 -40.523943 -169.768733 -12.761669 23.232384 -43.655426 23.742246 15.517094 40.062686 -9.935607 -8.890358 0.638663 0.000000 0.000000 0.000000 -20.512847 14.983988 -30.650311 15.343702 8.505050 15.885522 -32.451009 -6.811485 15.353870 0.000000 0.000000 0.000000 33.234194 22.432872 57.979864 -2.294401 -0.870425 -26.200558 -22.814833 -32.091684 37.988637 11.428507 5.803053 -13.151891 0.000000 0.000000 0.000000 8.255221 -12.041342 22.212970 -63.273511 -62.650226 53.371059 119.235212 -56.597125 -58.318976 0.000000 0.000000 0.000000 1.348054 14.309029 -30.604263 68.423083 -11.709453 -19.731808 122.053962 38.232197 37.024757 0.000000 0.000000 0.000000 
